<?xml version="1.0" encoding="UTF-8"?>
<svg id="Layer_4" data-name="Layer 4" xmlns="http://www.w3.org/2000/svg" viewBox="0 0 179.94 179.51">
  <defs>
    <style>
      .cls-1 {
        fill: #1a1a1a;
      }
    </style>
  </defs>
  <path class="cls-1" d="m48.82,135.41c-.01.1-.03.21-.04.31l.46.06c10.84,9.65,25.11,15.53,40.73,15.53,19.37,0,36.66-9.03,47.9-23.1.12-.1.21-.21.27-.34,8.23-10.44,13.16-23.6,13.16-37.9,0-33.82-27.52-61.34-61.34-61.34s-61.34,27.52-61.34,61.34c0,18,7.8,34.21,20.19,45.44Zm5.38-46.43c1.33-2.91,3.27-3.87,9.05-4.56.09-.01.18-.05.26-.09.44.37.86.75,1.26,1.16.08.08.18.14.28.19-.24.4-.38.85-.41,1.34-3.45-.25-7.05.45-10.43,1.97Zm12.56-6.49c.03.52.04,1.04.03,1.56,0,.08.02.16.04.23-.14.04-.28.09-.42.15-.05-.13-.12-.25-.22-.36-2.03-2.06-4.52-3.72-7.29-4.91,2.31-.7,4.07.09,7.68,3.21.06.05.12.07.18.11Zm3.32,1.64c3.75-1.18,5.81-1.46,7.62-.77-2.65.15-5.19.79-7.47,1.89-.16-.19-.34-.36-.55-.51.07-.2.14-.4.22-.59.06,0,.12,0,.17-.02Zm.22,4.85c.3-.38.52-.83.6-1.33.04,0,.08.03.13.03,3.06,0,5,1.31,6.08,2.42,1.45,1.48,2.25,3.47,2.21,5.47,0,.15.03.28.08.41-2.39-3.32-5.56-5.75-9.1-6.99Zm-3.7,1.2c-1.95,3.56-3.73,7.27-5.31,11.1l-.56-.11c1.77-3.8,3.73-7.48,5.87-10.99Zm-6.72,12.85l.64.13c-1.11,2.82-2.11,5.69-3.01,8.6l-.98-.3c1.01-2.86,2.12-5.68,3.34-8.43Zm-3.99,10.33l1.06.32c-.9,3.11-1.68,6.26-2.32,9.42l-1.45-.37c.77-3.15,1.68-6.29,2.71-9.38Zm-3.17,11.32l1.52.39c-.68,3.68-1.19,7.37-1.5,11.05-.61-.49-1.21-1-1.8-1.52.44-3.31,1.03-6.62,1.78-9.92Zm34.86,24.55v-20.44c0-.44.33-.79.74-.79h13.27c.41,0,.74.35.74.79v19.2c-3.99.85-8.13,1.31-12.37,1.31-.8,0-1.59-.03-2.38-.06Zm17.39-103.6c0,8.27-6.73,15.01-15.01,15.01s-15.01-6.73-15.01-15.01,6.73-15.01,15.01-15.01,15.01,6.73,15.01,15.01ZM31.32,80.97c.14-.01.28-.05.41-.12l16.34-9.28c.48-.27.65-.88.38-1.36-.27-.48-.88-.65-1.36-.38l-15.33,8.7c1.21-6.17,3.37-11.99,6.33-17.32.04,0,.09,0,.13-.02l32.6-8.77c.53-.14.85-.69.71-1.23s-.69-.85-1.23-.71l-30.78,8.28c2.84-4.57,6.28-8.74,10.21-12.37.17.27.46.46.8.47l19.23.49s.02,0,.03,0c.54,0,.99-.43,1-.97.01-.55-.42-1.01-.97-1.02l-18.38-.47c2.71-2.32,5.62-4.4,8.72-6.2.09.34.33.62.69.72l9.62,2.64c.09.02.18.04.27.04.44,0,.84-.29.96-.74.15-.53-.17-1.08-.7-1.23l-9-2.47c2.21-1.19,4.52-2.24,6.89-3.14-.03.39.18.78.55.97l2.55,1.28c.14.07.3.11.45.11.37,0,.72-.2.89-.55.25-.49.05-1.09-.44-1.34l-2.21-1.11c3.26-1.13,6.65-1.99,10.14-2.53-4.71,3.03-7.85,8.3-7.85,14.31,0,9.38,7.63,17.01,17.01,17.01s17.01-7.63,17.01-17.01c0-6-3.14-11.28-7.85-14.31,3.53.55,6.95,1.42,10.24,2.57l-2.31,1.52c-.46.3-.59.92-.28,1.39.19.29.51.45.84.45.19,0,.38-.05.55-.17l3.38-2.23s.07-.08.11-.11c2.21.87,4.36,1.86,6.42,2.97l-9.06,2.29c-.54.14-.86.68-.72,1.21.12.45.52.75.97.75.08,0,.16,0,.25-.03l10.85-2.74c.06-.02.11-.05.17-.08,2.72,1.64,5.3,3.51,7.71,5.55l-18.58.43c-.55.01-.99.47-.98,1.02.01.54.46.98,1,.98,0,0,.02,0,.02,0l20.08-.47c.18,0,.34-.07.48-.16,3.89,3.61,7.29,7.73,10.11,12.26l-30.79-8.64c-.53-.15-1.08.16-1.23.69s.16,1.08.69,1.23l31.85,8.94c.09.03.18.04.27.04.17,0,.32-.05.47-.13,3,5.32,5.22,11.13,6.47,17.3l-40.14-22.87c-.48-.27-1.09-.11-1.36.37-.27.48-.11,1.09.37,1.36l40.79,23.23c.16.09.33.13.49.13.08,0,.17-.01.25-.03.51,3.12.79,6.32.79,9.59,0,4.36-.49,8.61-1.38,12.7l-42.89-42.92c-.39-.39-1.02-.39-1.41,0-.39.39-.39,1.02,0,1.41l43.37,43.4c.12.12.28.19.43.24-1.98,7.64-5.44,14.69-10.07,20.82l-36.28-62.36c-.28-.48-.89-.64-1.37-.36-.48.28-.64.89-.36,1.37l36.68,63.04c-3.79,4.67-8.28,8.75-13.31,12.09v-19.27c0-.1-.04-.19-.1-.26l-19.45-20.48c-.24-.25-.65-.08-.65.26v1.75c0,.1.04.19.11.26l18,18.8c.07.07.11.16.11.26l.04,19.93c-5.04,3.07-10.57,5.4-16.44,6.87v-20.99c0-.44-.33-.79-.74-.79h-17.12c-.41,0-.74.35-.74.79v22.59c-5.47-.39-10.74-1.51-15.7-3.29v-24.82c0-.15.06-.3.16-.41l6.07-6.45c.22-.24.21-.62-.02-.85l-.68-.64c-.23-.22-.59-.2-.8.03l-6.8,7.51c-.1.11-.15.25-.15.4v24.36c-5.06-2.05-9.76-4.77-14.02-8.05l.9.07c1.26-16.03,6.23-32.47,13.99-46.42.63.17,1.25.38,1.85.64l.17.94c.81,4.41.9,4.87-1,7.99-.29.47-.14,1.09.33,1.37.16.1.34.15.52.15.34,0,.67-.17.85-.48,2.2-3.6,2.11-4.75,1.37-8.82.67.42,1.3.9,1.92,1.42.92,5.12-1.29,8.57-3.5,9.98-.47.3-.6.92-.3,1.38.19.3.51.46.84.46.18,0,.37-.05.54-.16,2.33-1.49,4.68-4.76,4.63-9.48.15.18.28.37.42.55.71,6.52-3.62,10.1-4.12,10.48-.44.34-.52.97-.18,1.4.2.25.49.39.79.39.21,0,.43-.07.61-.21,2.13-1.65,4.38-4.84,4.87-9.01.2.38.38.76.55,1.15.02,5.27-2.41,7.93-4.48,9.23-.47.29-.61.91-.31,1.38.19.3.52.47.85.47.18,0,.37-.05.53-.15,1.52-.96,3.78-2.93,4.84-6.54.1.52.16,1.03.22,1.55-.02.06-.05.1-.05.16-.37,3.29-2.43,4.69-3.62,5.23-.5.23-.73.82-.5,1.32.17.37.53.59.91.59.14,0,.28-.03.41-.09.76-.34,1.77-.94,2.68-1.94-.19,1.03-.45,2.04-.83,3-.21.51.04,1.09.56,1.3.12.05.25.07.37.07.4,0,.77-.24.93-.63,1.91-4.77,1.67-10.47-.57-15.58,0-.02-.01-.03-.02-.05-.26-.58-.53-1.16-.84-1.72-.39-.71-.81-1.39-1.26-2.04.17.16.4.27.65.27h.02c.54,0,.99-.43,1-.98.05-2.53-.96-5.05-2.78-6.91-1.29-1.31-2.92-2.22-4.75-2.67.73-.21,1.48-.37,2.24-.49.1.22.28.42.52.52,3.75,1.56,5.3,4.42,5.89,5.99.74,1.97.8,4.1.14,5.43-.24.5-.04,1.09.45,1.34.14.07.29.1.44.1.37,0,.72-.2.9-.56.92-1.85.89-4.48-.06-7.02-.94-2.5-2.64-4.57-4.88-6.02.6.01,1.2.05,1.8.12.09.17.21.32.39.42,5.32,2.9,5.94,9.87,5.04,12.2-.2.51.06,1.09.57,1.29.12.05.24.07.36.07.4,0,.78-.24.93-.64,1.05-2.71.61-8.56-3.09-12.47.25.08.5.16.75.24,4.7,3.75,5.42,9.69,4.47,11.83-.22.5,0,1.1.51,1.32.13.06.27.08.4.08.38,0,.75-.22.92-.6,1.03-2.34.6-6.75-1.81-10.56.97.58,1.88,1.22,2.72,1.91.02.03.03.07.05.1,1.93,2.37,2.3,7.09,1.5,8.79-.23.5-.02,1.1.49,1.33.14.06.28.09.42.09.38,0,.74-.21.91-.58.57-1.22.74-3.44.37-5.7,1.06,1.55,1.84,3.22,2.27,4.94.11.45.52.76.97.76.08,0,.16,0,.24-.03.54-.13.86-.68.73-1.21-1.51-6.07-6.78-11.47-13.75-14.11-2.11-.8-4.26-1.29-6.37-1.5-.06-.19-.16-.36-.32-.49-2.98-2.31-5.67-2.34-9.75-1.22.43-.67.91-1.31,1.45-1.93.16.04.32.06.48.01,4.7-1.16,9.05,1.36,9.75,3.07.16.39.53.62.92.62.13,0,.26-.02.38-.08.51-.21.75-.8.54-1.31-.96-2.31-5.01-4.85-9.78-4.59.34-.28.69-.55,1.06-.81.11.02.23.03.35.01,4.67-.73,8.76,2.71,9.53,4.14.18.34.53.53.88.53.16,0,.32-.04.47-.12.49-.26.67-.87.41-1.35-.98-1.83-4.3-4.54-8.34-5.15.2-.1.39-.21.59-.3,4.57-.12,8.1,2.64,8.74,4.2.16.39.53.62.93.62.12,0,.25-.02.38-.07.51-.21.76-.79.55-1.3-.68-1.67-3.06-3.8-6.31-4.84.94-.2,1.88-.34,2.79-.4,2.18.39,3.43,2.29,3.75,3.54.11.45.52.76.97.76.08,0,.16,0,.24-.03.54-.13.86-.68.73-1.21-.23-.94-.75-1.93-1.49-2.79.89.18,1.73.43,2.5.79.5.23,1.1.02,1.33-.48.23-.5.02-1.1-.48-1.33-2.17-1.02-4.76-1.43-7.49-1.27-.06,0-.11-.03-.16-.03-.19-.02-.36.02-.52.1-2.27.21-4.62.8-6.92,1.78-.13.03-.25.07-.36.15-4.62,2.06-8.24,5.34-10.3,9.24-.39-5.21-2.66-10.35-6.36-14.37-.06-.1-.14-.18-.24-.26-.45-.47-.91-.93-1.39-1.37-1.36-1.23-2.79-2.22-4.24-2.97-.12-.12-.26-.23-.44-.27-.08-.02-.16-.03-.23-.05-2.38-1.11-4.78-1.58-7-1.28-.55.07-.93.58-.86,1.12.07.55.58.93,1.12.86.84-.11,1.72-.09,2.61.06-1.06.66-1.92,1.61-2.46,2.6-.27.48-.09,1.09.4,1.36.15.08.32.12.48.12.35,0,.7-.19.88-.52.65-1.19,2.31-2.73,4.29-2.38.88.44,1.76.98,2.62,1.62-3.35-.15-6.26,1.28-7.42,2.85-.33.44-.23,1.07.21,1.4.18.13.39.19.59.19.31,0,.61-.14.81-.41,1.02-1.38,4.89-3,8.8-1.33.23.25.45.51.67.77-3.85-.84-7.72.86-9.18,2.47-.37.41-.34,1.04.07,1.41.19.17.43.26.67.26.27,0,.54-.11.74-.33,1.1-1.2,5.67-3.32,9.49-.97.1.06.2.09.31.11.28.47.55.95.8,1.44-2.35-1.09-4.51-1.05-5.74-.87-1.92.27-3.57,1.12-4.42,2.25-.33.44-.24,1.07.2,1.4.44.33,1.07.24,1.4-.2.52-.7,1.74-1.27,3.1-1.47,1.26-.18,3.75-.2,6.25,1.68.13.1.29.15.44.18.29.87.54,1.75.72,2.64-3.23-2.55-5.64-3.43-9-2.05-.34.14-.55.45-.6.8-2.7-.89-5.6-1.35-8.56-1.34-.12-.02-.24-.02-.37,0-.43,0-.85.02-1.28.05-2.39.15-4.61.62-6.61,1.34-.17,0-.34.04-.49.13-.06.04-.11.09-.17.13-2.75,1.1-5.04,2.71-6.58,4.74-.33.44-.25,1.07.19,1.4.44.33,1.07.25,1.4-.19.63-.84,1.44-1.59,2.37-2.26-.37,1.38-.34,2.83,0,4.05.12.44.53.73.96.73.09,0,.18-.01.27-.04.53-.15.84-.7.69-1.24-.41-1.44-.27-3.98,1.62-5.39,1.14-.44,2.36-.79,3.66-1.03-2.88,2.61-4.14,6.1-3.84,8.22.07.5.5.86.99.86.05,0,.09,0,.14,0,.55-.08.93-.58.85-1.13-.27-1.9,1.62-6.38,6.14-8.36.46,0,.92,0,1.37.03-3.84,2.45-5.66,6.95-5.58,9.36.02.54.46.97,1,.97.01,0,.02,0,.03,0,.55-.02.98-.48.97-1.03-.06-1.82,1.98-7.24,6.96-8.65.14-.04.26-.11.36-.19.68.14,1.35.3,2.02.49-4.99,1.87-7.62,6.45-7.24,9.3.07.5.5.87.99.87.04,0,.09,0,.13,0,.55-.07.93-.58.86-1.12-.29-2.14,2.45-6.67,7.78-7.67.2-.04.35-.14.49-.27,1.02.45,2,.97,2.92,1.56-4.73.73-7.39,1.99-9.02,5.79-.2.48,0,1.01.45,1.26-1.38.74-2.71,1.62-3.97,2.62-.11.06-.21.14-.3.24-.31.25-.61.51-.91.78-1.58,1.44-2.89,2.99-3.9,4.59-.12.11-.23.23-.29.39-.03.07-.05.15-.07.22-1.33,2.3-2.07,4.67-2.05,6.93,0,.55.45.99,1,.99h0c.55,0,1-.46.99-1.01,0-.83.12-1.7.35-2.58.51,1.05,1.28,1.93,2.13,2.53.18.12.38.18.57.18.31,0,.62-.15.82-.42.32-.45.21-1.08-.24-1.39-1.03-.73-2.27-2.47-1.73-4.43.61-1.01,1.34-2.01,2.21-2.97-.39,3.41.47,6.58,1.24,7.79.19.3.51.46.84.46.18,0,.37-.05.54-.16.47-.3.6-.92.31-1.38-.7-1.1-1.76-5.4-.28-9.22.2-.16.4-.32.6-.47-1.18,3.76-.03,7.69,1.3,9.25.2.23.48.35.76.35.23,0,.46-.08.65-.24.42-.36.47-.99.11-1.41-1.01-1.19-2.48-5.95.23-9.65.07-.1.12-.21.15-.33.43-.22.86-.43,1.3-.62-2.29,4.04-1.62,8.5.18,10.21.19.18.44.28.69.28.26,0,.53-.1.72-.31.38-.4.36-1.03-.04-1.41-1.29-1.23-1.78-5.86,1.35-9.43.12-.13.18-.29.21-.45.83-.23,1.67-.4,2.51-.52-2.76,3.16-3.2,5.36-3.06,8.64.02.54.47.96,1,.96.01,0,.03,0,.04,0,.55-.02.98-.49.96-1.04-.12-2.81,0-4.73,3.79-8.54.05-.05.08-.12.12-.18.47,0,.93.03,1.39.08-8.01,13.09-13.57,28.55-15.81,43.93-7.96-7.56-13.84-17.29-16.65-28.24,0,0,0,0,.02,0,.26,0,.52-.1.71-.3l8.68-8.85c.39-.39.38-1.03-.01-1.41s-1.03-.38-1.41.01l-8.43,8.6c-.91-4.13-1.41-8.41-1.41-12.81,0-3.06.23-6.06.68-8.99Z"/>
  <path class="cls-1" d="m77.19,43.16c.01.18.04.57.32.77.33.25.83.09.96.05,1.37-.43.97-2.96,2.8-5.16,1.05-1.27,2.2-1.65,2.06-2.45-.08-.46-.54-.86-1.01-.94-.93-.17-1.79.97-3.06,2.68,0,0-2.2,2.97-2.07,5.05Z"/>
  <path class="cls-1" d="m84.22,35.86c.82.05,1-.28,2.24-.79.72-.29,1.2-.61,1.2-.91,0-.17-.19-.65-.45-.75-.51-.2-1.38-.14-2.25.28,0,0-1.36.58-1.48,1.34-.01.06.14.39.28.5.16.14.39.32.47.33Z"/>
  <path class="cls-1" d="m86.44,101.09c-.11-.1-.28-.09-.39.02l-1.59,1.65c-.18.19-.19.48-.02.68l.77.91c.11.13.31.13.42,0l1.79-2.01c.1-.12.09-.29-.02-.39l-.97-.86Z"/>
  <path class="cls-1" d="m102.95,97.78c.12.45.52.74.96.74.09,0,.17-.01.26-.04.53-.14.85-.69.7-1.23l-8.68-32c-.14-.53-.69-.84-1.23-.7-.53.15-.85.69-.7,1.23l8.68,32Z"/>
  <path class="cls-1" d="m89.97,69.67c.55,0,1-.45,1-1v-2.47c0-.55-.45-1-1-1s-1,.45-1,1v2.47c0,.55.45,1,1,1Z"/>
  <path class="cls-1" d="m83.63,69.63c.09.03.19.04.28.04.43,0,.83-.28.96-.72l.72-2.47c.16-.53-.15-1.09-.68-1.24-.53-.16-1.08.15-1.24.68l-.72,2.47c-.16.53.15,1.09.68,1.24Z"/>
  <path class="cls-1" d="m74.19,73.09c.17.1.35.15.53.15.33,0,.66-.17.85-.47l5.07-8.03c.3-.47.16-1.08-.31-1.38s-1.09-.16-1.38.31l-5.07,8.03c-.3.47-.16,1.08.31,1.38Z"/>
  <path class="cls-1" d="m67.08,68.93c.2.2.45.3.71.3s.51-.1.7-.29l7.87-7.81c.39-.39.39-1.02,0-1.41-.39-.39-1.02-.39-1.41,0l-7.87,7.81c-.39.39-.39,1.02,0,1.41Z"/>
  <path class="cls-1" d="m65.45,61.15c.16,0,.33-.04.48-.12l6.65-3.66c.48-.27.66-.87.39-1.36-.27-.48-.87-.66-1.36-.39l-6.65,3.66c-.48.27-.66.87-.39,1.36.18.33.52.52.88.52Z"/>
  <path class="cls-1" d="m143.09,137.98c10.37-11.47,17.06-26.31,18.26-42.65l18.59-6.39-18.77-6.46c-1.65-15.64-8.35-29.8-18.44-40.8l3.22-6.6c.33-.68-.38-1.39-1.06-1.06l-6.6,3.22c-11.26-10.32-25.81-17.08-41.88-18.52L89.97,0l-6.44,18.74c-16.25,1.46-30.96,8.36-42.27,18.88l-6.6-3.22c-.68-.33-1.39.38-1.06,1.06l3.24,6.63c-9.89,10.94-16.45,24.95-18.07,40.4L0,88.94l18.59,6.39c1.19,16.15,7.74,30.82,17.9,42.23l-3.25,6.66c-.33.68.38,1.39,1.06,1.06l6.57-3.21c11.61,10.96,26.86,18.08,43.73,19.34l6.23,18.1,6.27-18.24c15.99-1.59,30.44-8.46,41.59-18.84l6.57,3.21c.68.33,1.39-.38,1.06-1.06l-3.22-6.61Zm32.98-48.82l-14.62,4.95c.08-1.35.12-2.71.12-4.09,0-.34-.02-.68-.03-1.03l14.52.16ZM94.84,18.62c-1.61-.11-3.23-.18-4.87-.18l.21-15.22,4.66,15.41ZM18.67,83.7c-.15,1.7-.24,3.41-.27,5.14H2.88l15.79-5.14ZM89.97,20.44c38.38,0,69.6,31.22,69.6,69.6s-31.22,69.6-69.6,69.6S20.37,128.41,20.37,90.03,51.6,20.44,89.97,20.44Zm.85,155.17l-4.82-14.09c1.31.07,2.64.12,3.97.12.29,0,.57-.02.85-.02v13.99Z"/>
  <path class="cls-1" d="m89.97,158.15c37.6,0,68.18-30.59,68.18-68.18S127.57,21.78,89.97,21.78,21.79,52.37,21.79,89.96s30.59,68.18,68.18,68.18Zm0-135.36c37.04,0,67.18,30.14,67.18,67.18s-30.14,67.18-67.18,67.18S22.79,127.01,22.79,89.96,52.93,22.78,89.97,22.78Z"/>
</svg>